<svg width="150" height="150" viewBox="0 0 150 150" fill="none" xmlns="http://www.w3.org/2000/svg">
<path d="M102.697 43.5586L94.8984 31.2363C93.2549 29.3203 91.002 28.125 88.4766 28.125H61.5234C58.998 28.125 56.7451 29.3203 55.1016 31.2363L47.3027 43.5586C45.6592 45.4775 43.541 46.875 41.0156 46.875H23.4375C20.9511 46.875 18.5665 47.8627 16.8084 49.6209C15.0502 51.379 14.0625 53.7636 14.0625 56.25V112.5C14.0625 114.986 15.0502 117.371 16.8084 119.129C18.5665 120.887 20.9511 121.875 23.4375 121.875H126.562C129.049 121.875 131.433 120.887 133.192 119.129C134.95 117.371 135.938 114.986 135.938 112.5V56.25C135.938 53.7636 134.95 51.379 133.192 49.6209C131.433 47.8627 129.049 46.875 126.562 46.875H109.277C106.743 46.875 104.341 45.4775 102.697 43.5586Z" stroke="black" stroke-width="10" stroke-linecap="round" stroke-linejoin="round"/>
<path d="M75 103.125C87.9442 103.125 98.4375 92.6317 98.4375 79.6875C98.4375 66.7433 87.9442 56.25 75 56.25C62.0558 56.25 51.5625 66.7433 51.5625 79.6875C51.5625 92.6317 62.0558 103.125 75 103.125Z" stroke="black" stroke-width="10" stroke-miterlimit="10"/>
<path d="M36.3281 46.2891V39.8438H29.2969V46.2891" stroke="black" stroke-width="10" stroke-linecap="round" stroke-linejoin="round"/>
</svg>
